<?xml version="1.0" encoding="UTF-8"?>
<svg xmlns="http://www.w3.org/2000/svg" xmlns:xlink="http://www.w3.org/1999/xlink" width="39px" height="38px" viewBox="0 0 39 38" version="1.1">
<g id="surface1">
<path style=" stroke:none;fill-rule:nonzero;fill:black;fill-opacity:1;" d="M 19.03125 0.0273438 C 18.957031 0.03125 18.683594 0.0546875 18.417969 0.0742188 C 15.105469 0.320312 11.746094 1.546875 8.992188 3.519531 C 8.082031 4.171875 7.363281 4.78125 6.558594 5.585938 C 1.949219 10.210938 0.0507812 16.824219 1.492188 23.253906 C 2.082031 25.890625 3.34375 28.542969 5.011719 30.675781 C 7.632812 34.027344 11.226562 36.390625 15.253906 37.414062 C 16.894531 37.832031 18.253906 38 19.976562 38 C 21.671875 38 22.921875 37.847656 24.539062 37.453125 C 26.859375 36.878906 28.902344 35.941406 30.941406 34.507812 C 32.898438 33.132812 34.714844 31.207031 36.023438 29.132812 C 37.707031 26.449219 38.664062 23.484375 38.898438 20.234375 C 38.949219 19.550781 38.917969 17.855469 38.84375 17.160156 C 38.699219 15.773438 38.328125 13.945312 38.113281 13.566406 C 38.027344 13.414062 37.785156 13.222656 37.605469 13.160156 C 37.542969 13.140625 37.402344 13.121094 37.289062 13.121094 C 36.792969 13.121094 36.375 13.539062 36.375 14.027344 C 36.375 14.140625 36.429688 14.421875 36.503906 14.722656 C 37.160156 17.28125 37.214844 20.089844 36.65625 22.65625 C 35.9375 25.941406 34.34375 28.835938 31.933594 31.210938 C 30.808594 32.316406 29.726562 33.132812 28.324219 33.9375 C 25.054688 35.816406 20.988281 36.523438 17.175781 35.886719 C 14.28125 35.40625 11.765625 34.289062 9.375 32.425781 C 8.253906 31.550781 6.882812 30.105469 6.035156 28.894531 C 4.570312 26.808594 3.652344 24.613281 3.171875 22.058594 C 2.929688 20.753906 2.847656 19.027344 2.960938 17.625 C 3.132812 15.492188 3.667969 13.511719 4.570312 11.636719 C 4.988281 10.761719 5.246094 10.304688 5.746094 9.550781 C 6.769531 8.003906 8.121094 6.554688 9.613281 5.40625 C 11.367188 4.054688 13.449219 3.027344 15.550781 2.476562 C 16.6875 2.179688 17.597656 2.03125 18.75 1.945312 C 22.921875 1.648438 26.976562 2.851562 30.28125 5.371094 C 30.523438 5.558594 30.785156 5.757812 30.851562 5.824219 L 30.980469 5.933594 L 30.929688 6.070312 C 30.675781 6.789062 30.863281 7.683594 31.398438 8.308594 C 31.675781 8.625 32.171875 8.925781 32.59375 9.023438 C 32.882812 9.09375 33.382812 9.09375 33.671875 9.023438 C 34.410156 8.847656 35.101562 8.214844 35.320312 7.507812 C 35.566406 6.722656 35.421875 5.945312 34.917969 5.3125 C 34.363281 4.617188 33.40625 4.304688 32.519531 4.535156 L 32.328125 4.585938 L 32.054688 4.359375 C 30.953125 3.433594 29.617188 2.578125 28.210938 1.898438 C 25.933594 0.789062 23.644531 0.195312 21.035156 0.0351562 C 20.535156 0.0078125 19.351562 0 19.03125 0.0273438 Z M 19.03125 0.0273438 "/>
<path style=" stroke:none;fill-rule:nonzero;fill:black;fill-opacity:1;" d="M 17.070312 10.953125 C 16.71875 11.863281 15.957031 13.855469 15.371094 15.382812 C 14.785156 16.90625 13.582031 20.039062 12.695312 22.339844 C 11.816406 24.640625 11.082031 26.535156 11.074219 26.546875 C 11.066406 26.566406 11.996094 26.574219 13.140625 26.574219 L 15.222656 26.574219 L 15.347656 26.230469 C 15.417969 26.046875 15.660156 25.390625 15.890625 24.769531 L 16.308594 23.652344 L 19.433594 23.652344 C 21.925781 23.652344 22.5625 23.640625 22.554688 23.609375 C 22.519531 23.519531 22.011719 22.058594 21.738281 21.277344 L 21.445312 20.445312 L 19.375 20.429688 L 17.308594 20.414062 L 18.652344 16.695312 C 19.460938 14.464844 20.007812 13.003906 20.019531 13.035156 C 20.03125 13.066406 20.570312 14.597656 21.214844 16.4375 C 21.859375 18.277344 22.925781 21.308594 23.582031 23.171875 L 24.773438 26.558594 L 26.847656 26.566406 C 27.988281 26.570312 28.921875 26.566406 28.921875 26.5625 C 28.921875 26.554688 28.652344 25.847656 28.320312 24.992188 C 27.992188 24.136719 27.28125 22.292969 26.746094 20.894531 C 26.207031 19.496094 25.605469 17.929688 25.402344 17.40625 C 25.203125 16.886719 24.855469 15.984375 24.628906 15.398438 C 24.40625 14.8125 23.820312 13.28125 23.320312 11.992188 C 22.824219 10.703125 22.390625 9.570312 22.355469 9.476562 L 22.292969 9.304688 L 17.703125 9.304688 Z M 17.070312 10.953125 "/>
</g>
</svg>
