<?xml version="1.0" encoding="UTF-8"?>
<svg xmlns="http://www.w3.org/2000/svg" xmlns:xlink="http://www.w3.org/1999/xlink" width="39px" height="39px" viewBox="0 0 39 39" version="1.1">
<g id="surface1">
<path style=" stroke:none;fill-rule:nonzero;fill:white;fill-opacity:1;" d="M 17.257812 2.945312 C 15.5625 3.160156 14.019531 3.742188 11.601562 5.109375 C 8.753906 6.6875 7.625 7.566406 6.199219 9.359375 C 5.402344 10.355469 3.898438 13.125 3.800781 13.726562 C 3.78125 13.960938 3.703125 14.273438 3.648438 14.429688 C 3.238281 15.660156 3.121094 16.730469 3.121094 19.578125 C 3.121094 22.269531 3.199219 23.070312 3.53125 24.316406 C 3.957031 25.875 4.464844 27.105469 4.738281 27.320312 C 4.835938 27.378906 4.894531 27.496094 4.894531 27.574219 C 4.855469 27.75 5.421875 28.800781 5.8125 29.289062 C 6.179688 29.777344 8.558594 32.136719 9.027344 32.527344 C 9.203125 32.644531 9.59375 32.878906 9.886719 32.992188 C 10.179688 33.128906 10.472656 33.285156 10.53125 33.34375 C 10.765625 33.617188 13.472656 35.082031 14.15625 35.296875 C 14.585938 35.429688 15.015625 35.605469 15.113281 35.683594 C 15.5625 36.035156 18.425781 36.328125 20.535156 36.230469 C 22.933594 36.113281 25.039062 35.527344 26.714844 34.496094 C 27.203125 34.203125 27.964844 33.773438 28.429688 33.539062 C 28.878906 33.304688 29.25 33.03125 29.25 32.933594 C 29.25 32.839844 29.328125 32.78125 29.425781 32.820312 C 29.660156 32.878906 32.429688 30.613281 32.292969 30.476562 C 32.234375 30.421875 32.410156 30.207031 32.664062 29.992188 C 32.933594 29.777344 33.148438 29.484375 33.148438 29.328125 C 33.148438 29.171875 33.207031 29.054688 33.304688 29.054688 C 33.480469 29.054688 34.339844 27.691406 34.359375 27.398438 C 34.359375 27.28125 34.535156 26.96875 34.730469 26.695312 C 35.121094 26.128906 35.625 24.472656 35.878906 22.914062 C 36.09375 21.625 36.09375 17.296875 35.878906 16.183594 C 35.625 14.761719 35.101562 13.007812 34.867188 12.714844 C 34.730469 12.558594 34.613281 12.34375 34.59375 12.207031 C 34.535156 11.757812 33.285156 9.710938 33.03125 9.613281 C 32.878906 9.554688 32.800781 9.457031 32.839844 9.378906 C 32.914062 9.242188 31.082031 7.410156 30.070312 6.589844 C 29.464844 6.101562 28.917969 5.851562 28.78125 5.988281 C 28.722656 6.046875 28.664062 6.007812 28.664062 5.890625 C 28.664062 5.773438 28.429688 5.558594 28.136719 5.402344 C 27.828125 5.246094 27.105469 4.835938 26.480469 4.503906 C 23.828125 3.023438 20.632812 2.476562 17.257812 2.945312 Z M 14.820312 5.96875 C 14.234375 6.355469 13.550781 6.863281 13.300781 7.117188 C 13.066406 7.351562 12.324219 7.761719 11.640625 7.996094 C 10.976562 8.25 10.140625 8.617188 9.808594 8.8125 C 8.910156 9.339844 9.007812 8.949219 10.003906 8.035156 C 11.621094 6.492188 12.832031 5.792969 14.449219 5.480469 C 15.890625 5.1875 15.929688 5.246094 14.820312 5.96875 Z M 24.609375 5.480469 C 26.558594 5.910156 27.574219 6.492188 29.230469 8.191406 C 29.914062 8.890625 29.796875 9.203125 29.015625 8.695312 C 28.761719 8.539062 28.097656 8.230469 27.515625 7.996094 C 26.949219 7.78125 25.972656 7.195312 25.371094 6.726562 C 24.765625 6.257812 24.023438 5.734375 23.691406 5.578125 C 22.992188 5.207031 23.222656 5.1875 24.609375 5.480469 Z M 21.332031 5.832031 C 21.46875 5.949219 21.78125 6.066406 22.015625 6.101562 C 22.25 6.140625 22.601562 6.296875 22.777344 6.453125 C 22.972656 6.609375 23.359375 6.863281 23.671875 7.019531 C 24.238281 7.3125 24.21875 7.3125 22.601562 7.449219 C 21.703125 7.527344 20.59375 7.742188 20.125 7.917969 C 19.578125 8.113281 19.207031 8.171875 19.128906 8.054688 C 18.953125 7.761719 17.140625 7.410156 15.835938 7.410156 L 14.722656 7.390625 L 15.308594 7.078125 C 15.640625 6.902344 15.929688 6.707031 15.988281 6.628906 C 16.046875 6.550781 16.4375 6.375 16.867188 6.238281 C 17.296875 6.101562 17.746094 5.929688 17.84375 5.851562 C 18.386719 5.441406 20.824219 5.421875 21.332031 5.832031 Z M 17.375 8.695312 L 18.078125 8.8125 L 16.496094 10.355469 C 15.113281 11.699219 14.800781 11.914062 13.882812 12.109375 C 13.300781 12.226562 12.539062 12.441406 12.167969 12.597656 C 11.230469 12.988281 11.09375 12.949219 11.308594 12.363281 C 11.425781 12.089844 11.464844 11.796875 11.40625 11.699219 C 11.347656 11.601562 11.367188 11.503906 11.445312 11.464844 C 11.542969 11.445312 11.816406 11.015625 12.070312 10.53125 C 12.324219 10.042969 12.792969 9.417969 13.105469 9.105469 C 13.589844 8.617188 13.765625 8.578125 15.152344 8.578125 C 15.988281 8.578125 16.984375 8.636719 17.375 8.695312 Z M 25.449219 8.695312 C 25.914062 8.8125 27.105469 10.492188 27.574219 11.699219 C 27.769531 12.1875 27.964844 12.695312 28.023438 12.8125 C 28.097656 12.988281 27.90625 12.96875 27.378906 12.734375 C 26.949219 12.558594 26.050781 12.304688 25.371094 12.148438 C 24.277344 11.914062 22.875 11.113281 23.128906 10.882812 C 23.164062 10.824219 22.71875 10.355469 22.113281 9.828125 L 21.039062 8.871094 L 21.585938 8.753906 C 22.289062 8.597656 24.941406 8.558594 25.449219 8.695312 Z M 11.113281 9.710938 C 11.113281 9.789062 11.035156 9.945312 10.921875 10.0625 C 10.6875 10.296875 9.75 12.929688 9.75 13.359375 C 9.75 13.53125 9.320312 14.097656 8.792969 14.625 C 8.25 15.132812 7.546875 15.988281 7.195312 16.496094 L 6.589844 17.453125 L 6.707031 15.699219 C 6.765625 14.722656 6.902344 13.609375 7.019531 13.222656 C 7.253906 12.421875 8.347656 11.25 9.847656 10.238281 C 10.84375 9.554688 11.113281 9.4375 11.113281 9.710938 Z M 20.242188 9.886719 C 20.535156 10.082031 21.390625 10.863281 22.132812 11.621094 C 23.222656 12.734375 23.652344 13.046875 24.277344 13.144531 C 25.429688 13.359375 27.183594 13.960938 27.789062 14.351562 C 28.273438 14.664062 28.3125 14.78125 28.214844 15.601562 C 28.15625 16.085938 27.90625 17.160156 27.671875 17.960938 C 27.242188 19.421875 27.242188 19.460938 27.574219 20.691406 C 27.75 21.371094 27.984375 22.25 28.078125 22.621094 C 28.429688 23.925781 28.332031 24.53125 27.710938 24.863281 C 26.96875 25.234375 25.679688 25.660156 24.472656 25.933594 C 23.710938 26.109375 23.300781 26.363281 22.523438 27.144531 C 21.996094 27.691406 21.117188 28.488281 20.59375 28.898438 C 19.65625 29.640625 19.636719 29.640625 19.128906 29.328125 C 18.855469 29.152344 18.445312 28.839844 18.214844 28.644531 C 18 28.429688 17.746094 28.332031 17.667969 28.410156 C 17.589844 28.507812 17.550781 28.46875 17.589844 28.371094 C 17.667969 28.097656 16.222656 26.539062 15.601562 26.226562 C 15.328125 26.089844 14.761719 25.933594 14.332031 25.855469 C 13.242188 25.660156 11.347656 24.960938 11.09375 24.648438 C 10.785156 24.257812 11.015625 22.132812 11.503906 20.960938 C 11.796875 20.242188 11.660156 18.367188 11.230469 17.160156 C 11.054688 16.671875 10.921875 15.871094 10.921875 15.386719 C 10.921875 14.605469 10.996094 14.46875 11.464844 14.214844 C 11.757812 14.058594 12.050781 13.863281 12.128906 13.746094 C 12.207031 13.648438 12.285156 13.609375 12.285156 13.667969 C 12.285156 13.746094 13.066406 13.589844 14.039062 13.339844 C 15.71875 12.890625 16.515625 12.382812 17.121094 11.40625 C 17.296875 11.113281 19.363281 9.554688 19.558594 9.554688 C 19.636719 9.554688 19.949219 9.710938 20.242188 9.886719 Z M 28.761719 9.945312 C 29.503906 10.316406 29.542969 10.335938 30.808594 11.484375 C 31.824219 12.382812 31.921875 12.558594 32.234375 13.902344 C 32.410156 14.683594 32.566406 15.851562 32.566406 16.496094 L 32.546875 17.648438 L 32.234375 17.0625 C 32.058594 16.75 31.804688 16.378906 31.667969 16.222656 C 31.511719 16.085938 31.394531 15.890625 31.394531 15.816406 C 31.394531 15.738281 30.925781 15.191406 30.34375 14.625 C 29.464844 13.765625 29.269531 13.453125 29.171875 12.695312 C 29.09375 12.207031 28.800781 11.289062 28.488281 10.667969 C 28.195312 10.042969 28.003906 9.574219 28.058594 9.613281 C 28.117188 9.632812 28.449219 9.789062 28.761719 9.945312 Z M 10.238281 18.195312 C 10.628906 19.167969 10.609375 19.792969 10.140625 21.253906 C 9.925781 21.917969 9.75 22.757812 9.75 23.089844 L 9.730469 23.691406 L 8.929688 22.816406 C 8.015625 21.800781 7.175781 20.203125 7.175781 19.480469 C 7.175781 19.207031 7.371094 18.660156 7.605469 18.273438 C 7.839844 17.882812 7.976562 17.550781 7.917969 17.550781 C 7.859375 17.550781 7.957031 17.394531 8.152344 17.199219 C 8.328125 17.003906 8.753906 16.515625 9.066406 16.125 L 9.652344 15.40625 L 9.808594 16.417969 C 9.886719 16.984375 10.082031 17.785156 10.238281 18.195312 Z M 5.65625 19.5 C 5.65625 19.773438 5.597656 20.804688 5.539062 21.800781 C 5.441406 23.417969 5.402344 23.574219 5.1875 23.164062 C 4.894531 22.601562 4.699219 21.917969 4.484375 20.554688 C 4.308594 19.480469 4.640625 17.082031 5.109375 16.144531 C 5.34375 15.640625 5.363281 15.71875 5.519531 17.316406 C 5.597656 18.253906 5.675781 19.226562 5.65625 19.5 Z M 31.296875 17.921875 C 32.058594 19.265625 32.078125 19.558594 31.472656 20.804688 C 30.867188 22.054688 30.867188 22.054688 30.070312 22.972656 L 29.503906 23.632812 L 29.367188 22.875 C 29.289062 22.464844 29.054688 21.546875 28.839844 20.824219 L 28.429688 19.5 L 28.839844 18.328125 C 29.074219 17.6875 29.25 16.945312 29.25 16.691406 C 29.25 16.417969 29.308594 16.066406 29.386719 15.871094 C 29.503906 15.582031 29.601562 15.640625 30.167969 16.28125 C 30.515625 16.691406 31.042969 17.433594 31.296875 17.921875 Z M 34.496094 17.960938 C 34.867188 19.578125 34.867188 19.617188 34.496094 21.234375 C 33.949219 23.574219 33.8125 23.691406 33.675781 21.859375 C 33.597656 20.980469 33.460938 20.125 33.363281 19.929688 C 33.265625 19.734375 33.246094 19.480469 33.363281 19.285156 C 33.441406 19.109375 33.578125 18.253906 33.65625 17.355469 C 33.8125 15.503906 33.949219 15.601562 34.496094 17.960938 Z M 32.507812 23.148438 C 32.292969 25.933594 32.097656 26.460938 30.90625 27.613281 C 30.421875 28.058594 30.03125 28.390625 30.03125 28.3125 C 30.011719 28.234375 29.875 28.351562 29.679688 28.585938 C 29.503906 28.800781 29.289062 28.996094 29.191406 29.015625 C 29.113281 29.035156 28.78125 29.191406 28.46875 29.347656 C 28.136719 29.523438 27.886719 29.5625 27.886719 29.445312 C 27.886719 29.347656 27.984375 29.25 28.078125 29.25 C 28.195312 29.25 28.273438 29.152344 28.273438 29.054688 C 28.273438 28.9375 28.449219 28.46875 28.664062 28.023438 C 28.898438 27.574219 29.132812 26.8125 29.191406 26.34375 C 29.289062 25.601562 29.503906 25.273438 30.613281 24.179688 C 31.316406 23.457031 32.019531 22.601562 32.15625 22.25 C 32.3125 21.917969 32.46875 21.644531 32.507812 21.644531 C 32.566406 21.644531 32.566406 22.328125 32.507812 23.148438 Z M 6.941406 22.015625 C 6.785156 22.25 8.425781 24.335938 9.144531 24.84375 C 9.574219 25.15625 9.75 25.46875 9.847656 26.089844 C 9.964844 26.851562 10.472656 28.273438 10.941406 29.113281 C 11.269531 29.71875 11.054688 29.660156 9.828125 28.859375 C 7.878906 27.59375 7.253906 26.792969 6.921875 25.234375 C 6.589844 23.652344 6.53125 21.839844 6.84375 21.839844 C 6.941406 21.839844 7 21.917969 6.941406 22.015625 Z M 13.6875 26.929688 C 14.800781 27.144531 15.015625 27.28125 16.066406 28.351562 C 16.691406 29.015625 17.257812 29.542969 17.335938 29.523438 C 17.394531 29.503906 17.609375 29.660156 17.785156 29.855469 C 18.097656 30.1875 18.097656 30.226562 17.394531 30.363281 C 17.003906 30.441406 15.929688 30.515625 15.054688 30.496094 C 13.492188 30.476562 13.398438 30.460938 12.949219 29.914062 C 12.480469 29.328125 11.425781 27.320312 11.210938 26.558594 C 11.074219 26.109375 11.09375 26.109375 11.777344 26.402344 C 12.167969 26.558594 13.027344 26.8125 13.6875 26.929688 Z M 28.078125 26.246094 C 28.078125 26.34375 28.003906 26.519531 27.183594 28.15625 C 26.871094 28.78125 26.636719 29.367188 26.675781 29.464844 C 26.695312 29.5625 26.617188 29.640625 26.5 29.640625 C 26.382812 29.640625 26.128906 29.855469 25.914062 30.109375 C 25.585938 30.535156 25.449219 30.554688 23.652344 30.515625 C 22.601562 30.476562 21.527344 30.363281 21.253906 30.265625 C 20.902344 30.109375 20.863281 30.050781 21.117188 30.050781 C 21.3125 30.03125 21.507812 29.894531 21.566406 29.738281 C 21.644531 29.582031 21.742188 29.484375 21.820312 29.523438 C 21.878906 29.5625 22.25 29.210938 22.621094 28.761719 C 23.574219 27.59375 24.296875 27.164062 25.679688 26.890625 C 26.363281 26.773438 26.988281 26.558594 27.085938 26.441406 C 27.261719 26.226562 28.078125 26.050781 28.078125 26.246094 Z M 29.738281 30.363281 C 29.328125 31.023438 27.535156 32.527344 26.636719 32.972656 C 25.933594 33.304688 24.414062 33.734375 23.886719 33.734375 C 23.613281 33.734375 23.613281 33.695312 23.828125 33.480469 C 23.964844 33.363281 24.316406 33.128906 24.589844 32.972656 C 24.882812 32.839844 25.410156 32.429688 25.777344 32.078125 C 26.148438 31.707031 26.695312 31.355469 27.007812 31.277344 C 27.320312 31.199219 27.789062 31.023438 28.058594 30.886719 C 28.332031 30.730469 28.664062 30.613281 28.761719 30.613281 C 28.878906 30.613281 29.171875 30.441406 29.445312 30.226562 C 30.089844 29.71875 30.109375 29.738281 29.738281 30.363281 Z M 9.632812 30.1875 C 9.691406 30.285156 10.375 30.59375 11.152344 30.90625 C 11.933594 31.21875 12.96875 31.785156 13.433594 32.15625 C 13.921875 32.546875 14.625 33.050781 14.996094 33.285156 C 15.542969 33.617188 15.601562 33.714844 15.308594 33.734375 C 14.800781 33.734375 13.511719 33.382812 12.734375 33.03125 C 12.402344 32.878906 12.050781 32.761719 11.953125 32.761719 C 11.855469 32.761719 11.5625 32.546875 11.308594 32.273438 C 11.074219 32.019531 10.785156 31.84375 10.707031 31.902344 C 10.609375 31.960938 10.53125 31.863281 10.53125 31.707031 C 10.53125 31.53125 10.453125 31.394531 10.355469 31.394531 C 10.257812 31.394531 9.945312 31.082031 9.671875 30.710938 C 9.378906 30.34375 9.222656 30.03125 9.339844 30.03125 C 9.4375 30.03125 9.574219 30.109375 9.632812 30.1875 Z M 20.496094 31.277344 C 20.980469 31.433594 21.976562 31.609375 22.699219 31.6875 L 24.003906 31.824219 L 23.359375 32.253906 C 22.523438 32.820312 20.960938 33.460938 20.046875 33.617188 C 19.5 33.714844 18.953125 33.617188 17.902344 33.246094 C 17.121094 32.953125 16.398438 32.722656 16.28125 32.703125 C 16.183594 32.683594 15.890625 32.488281 15.640625 32.253906 L 15.191406 31.824219 L 16.515625 31.667969 C 17.238281 31.589844 18.195312 31.433594 18.621094 31.296875 C 19.050781 31.160156 19.441406 31.042969 19.5 31.023438 C 19.558594 31.023438 20.007812 31.121094 20.496094 31.277344 Z M 20.496094 31.277344 "/>
</g>
</svg>
